<svg width="18" height="18" viewBox="0 0 18 18" fill="none" xmlns="http://www.w3.org/2000/svg">
<path d="M14.6625 10.92C14.6396 11.1094 14.4782 11.2514 14.2875 11.25H12.75C12.5429 11.25 12.375 11.4179 12.375 11.625V17.625C12.375 17.8321 12.5429 18 12.75 18H17.25C17.6642 18 18 17.6642 18 17.25V0.75C18 0.335786 17.6642 0 17.25 0H0.75C0.335786 0 0 0.335786 0 0.75V17.25C0 17.6642 0.335786 18 0.75 18H9C9.20711 18 9.375 17.8321 9.375 17.625V11.625C9.375 11.4179 9.20711 11.25 9 11.25H7.5C7.29289 11.25 7.125 11.0821 7.125 10.875V8.625C7.125 8.41789 7.29289 8.25 7.5 8.25H9C9.20711 8.25 9.375 8.08211 9.375 7.875V6.8925C9.375 4.53562 11.2856 2.625 13.6425 2.625H14.625C14.7245 2.625 14.8198 2.66451 14.8902 2.73484C14.9605 2.80516 15 2.90054 15 3V5.25C15 5.45711 14.8321 5.625 14.625 5.625H13.6425C12.9425 5.625 12.375 6.19248 12.375 6.8925V7.875C12.375 8.08211 12.5429 8.25 12.75 8.25H14.5725C14.6803 8.24922 14.7832 8.29484 14.8549 8.37523C14.9267 8.45562 14.9604 8.56301 14.9475 8.67L14.6625 10.92Z" fill="white"/>
</svg>
