<svg width="19" height="18" viewBox="0 0 19 18" fill="none" xmlns="http://www.w3.org/2000/svg">
<path fill-rule="evenodd" clip-rule="evenodd" d="M13.625 0H5.375C2.68432 0.00412998 0.50413 2.18432 0.5 4.875V13.125C0.50413 15.8157 2.68432 17.9959 5.375 18H13.625C16.3157 17.9959 18.4959 15.8157 18.5 13.125V4.875C18.4959 2.18432 16.3157 0.00412998 13.625 0ZM9.5 13.125C7.22183 13.125 5.375 11.2782 5.375 9C5.375 6.72183 7.22183 4.875 9.5 4.875C11.7782 4.875 13.625 6.72183 13.625 9C13.625 10.094 13.1904 11.1432 12.4168 11.9168C11.6432 12.6904 10.594 13.125 9.5 13.125ZM13.25 3.75C13.25 4.37132 13.7537 4.875 14.375 4.875C14.6734 4.875 14.9595 4.75647 15.1705 4.5455C15.3815 4.33452 15.5 4.04837 15.5 3.75C15.5 3.12868 14.9963 2.625 14.375 2.625C13.7537 2.625 13.25 3.12868 13.25 3.75Z" fill="white"/>
</svg>
