<svg width="17" height="16" viewBox="0 0 17 16" fill="none" xmlns="http://www.w3.org/2000/svg">
<path fill-rule="evenodd" clip-rule="evenodd" d="M6.67188 9.33301L0.671875 15.333L6.67188 9.33301Z" fill="white" fill-opacity="0.01"/>
<path d="M6.67188 9.33301L0.671875 15.333" stroke="white" stroke-linecap="round" stroke-linejoin="round"/>
<path fill-rule="evenodd" clip-rule="evenodd" d="M13.9996 5.85217C14.0846 5.93723 14.1999 5.98502 14.3202 5.98502C14.4405 5.98502 14.5559 5.93723 14.6409 5.85217L15.1495 5.3436C15.3998 5.09316 15.3998 4.68719 15.1495 4.43675L11.567 0.854277C11.3165 0.603913 10.9106 0.603913 10.6601 0.854277L10.1516 1.36285C10.0665 1.44789 10.0187 1.56324 10.0187 1.68352C10.0187 1.8038 10.0665 1.91915 10.1516 2.00418C10.2366 2.08922 10.2844 2.20457 10.2844 2.32485C10.2844 2.44513 10.2366 2.56048 10.1516 2.64552L7.45349 5.3436C7.33325 5.46388 7.17015 5.53147 7.00007 5.53151H4.96577C4.79569 5.53154 4.63259 5.59913 4.51235 5.71942L4.19168 6.04008C3.94132 6.29052 3.94132 6.69648 4.19168 6.94692L9.05682 11.8121C9.30726 12.0624 9.71322 12.0624 9.96366 11.8121L10.2843 11.4914C10.4046 11.3712 10.4722 11.2081 10.4722 11.038V9.00432C10.4723 8.83424 10.5399 8.67114 10.6601 8.55089L13.3582 5.85281C13.4432 5.76767 13.5585 5.71976 13.6788 5.71964C13.799 5.71952 13.9144 5.76719 13.9996 5.85217Z" fill="white" fill-opacity="0.01" stroke="white" stroke-linecap="round" stroke-linejoin="round"/>
</svg>
